<?xml version="1.0" encoding="UTF-8"?>
<!DOCTYPE svg PUBLIC "-//W3C//DTD SVG 1.1//EN" "http://www.w3.org/Graphics/SVG/1.1/DTD/svg11.dtd">
<svg xmlns="http://www.w3.org/2000/svg" version="1.1" width="340px" height="335px" style="shape-rendering:geometricPrecision; text-rendering:geometricPrecision; image-rendering:optimizeQuality; fill-rule:evenodd; clip-rule:evenodd" xmlns:xlink="http://www.w3.org/1999/xlink">
<g><path style="opacity:0.997" fill="#fefefe" d="M 29.5,-0.5 C 78.5,-0.5 127.5,-0.5 176.5,-0.5C 238.38,3.58461 285.547,31.9179 318,84.5C 329.835,106.533 337.001,129.866 339.5,154.5C 339.5,163.167 339.5,171.833 339.5,180.5C 330.232,254.607 290.232,303.774 219.5,328C 209.15,330.769 198.816,332.935 188.5,334.5C 133.833,334.5 79.1667,334.5 24.5,334.5C 11.3932,330.394 3.05986,321.727 -0.5,308.5C -0.5,214.5 -0.5,120.5 -0.5,26.5C 3.8134,11.1868 13.8134,2.18682 29.5,-0.5 Z M 87.5,58.5 C 106.856,58.7548 118.023,68.4215 121,87.5C 121.333,101.833 121.667,116.167 122,130.5C 147.5,109 173,87.5 198.5,66C 214.604,55.2131 229.437,56.7131 243,70.5C 251.24,82.588 251.574,94.9214 244,107.5C 219.955,128.383 195.789,149.05 171.5,169.5C 193.994,189.158 216.661,208.658 239.5,228C 253.131,244 252.798,259.667 238.5,275C 227.411,282.388 215.744,283.388 203.5,278C 176.054,255.189 148.888,232.022 122,208.5C 121.667,223.5 121.333,238.5 121,253.5C 116.188,276.328 102.354,285.162 79.5,280C 68.8789,275.594 62.3789,267.76 60,256.5C 59.3333,199.5 59.3333,142.5 60,85.5C 63.1347,70.1973 72.3014,61.1973 87.5,58.5 Z"/></g>
</svg>
